<svg width="41" height="29" viewBox="0 0 41 29" fill="none" xmlns="http://www.w3.org/2000/svg">
<path d="M16 0C9.33575 0 5.17084 3.33118 3.50462 9.99291C6.00395 6.66173 8.91951 5.41301 12.2513 6.24549C14.1525 6.72048 15.5112 8.09983 17.0156 9.62605C19.4655 12.1122 22.3011 14.9897 28.4953 14.9897C35.1589 14.9897 39.3245 11.6585 40.9901 4.99615C38.4914 8.32732 35.5758 9.57667 32.2434 8.74419C30.3428 8.2692 28.9841 6.88985 27.4797 5.36364C25.0298 2.87744 22.1936 0 16 0ZM12.5046 13.9897C5.84101 13.9897 1.67548 17.3209 0.0098877 23.9832C2.50858 20.652 5.42415 19.4027 8.75658 20.2358C10.6572 20.7114 12.0159 22.0901 13.5202 23.6157C15.9702 26.1019 18.8064 28.98 25 28.98C31.6642 28.98 35.8291 25.6488 37.4953 18.9865C34.996 22.3176 32.0805 23.567 28.7487 22.7339C26.8474 22.2595 25.4887 20.8795 23.9844 19.3539C21.5344 16.8677 18.6989 13.9897 12.5046 13.9897Z" fill="#06B6D4"/>
</svg>
